# xmcd
#
# Track frame offsets: 
#        150
#        18793
#        35330
#        52860
#        66955
#        78753
#        94203
#        110435
#        134488
#        156008
#        166883
#        182183
#        193688
#        209500
#        212948
#        225660
#
# Disc length: 3275 seconds
#
# Revision: 3
# Processed by: cddbd v1.5.2PL0 Copyright (c) Steve Scherf et al.
# Submitted via: ExactAudioCopyFreeDBPlugin 1.0
#
DISCID=d60cc910
DTITLE=Rory Block - Best Blues And Originals
DYEAR=1989
DGENRE=Blues
TTITLE0=Lovin' Whiskey
TTITLE1=The Water Is Wide
TTITLE2=Ain't No Way To Do
TTITLE3=Future Blues
TTITLE4=God's Gift To Women
TTITLE5=Moon's Going Down
TTITLE6=Send The Man Back Home
TTITLE7=Gypsie Boy
TTITLE8=The Golden Vanity
TTITLE9=Walking Blues
TTITLE10=M&O Blues
TTITLE11=Crossroad Blues
TTITLE12=Lovin' Fool
TTITLE13=Foreign Lander
TTITLE14=Travelin' Blues
TTITLE15=Goin' Back To The Country
EXTD=YEAR: 1989
EXTT0=
EXTT1=
EXTT2=
EXTT3=
EXTT4=
EXTT5=
EXTT6=
EXTT7=
EXTT8=
EXTT9=
EXTT10=
EXTT11=
EXTT12=
EXTT13=
EXTT14=
EXTT15=
PLAYORDER=
